<?xml version="1.0" encoding="UTF-8"?>
<svg viewBox="0 0 70 70" xmlns="http://www.w3.org/2000/svg" xmlns:xlink="http://www.w3.org/1999/xlink">
    <g id="circleci" fill="#343434">
        <path d="M34.5,0 C18.2,0 4.5,11.2 0.6,26.2 C0.6,26.3 0.5,26.5 0.5,26.6 C0.5,27.5 1.2,28.3 2.2,28.3 L16.3,28.3 C17,28.3 17.5,27.9 17.8,27.3 L17.8,27.2 C20.7,20.9 27.1,16.6 34.4,16.6 C44.5,16.6 52.7,24.8 52.7,34.9 C52.7,45 44.5,53.2 34.4,53.2 C27,53.2 20.7,48.8 17.8,42.6 L17.8,42.5 C17.5,41.9 17,41.5 16.3,41.5 L2.2,41.5 C1.3,41.5 0.5,42.2 0.5,43.2 C0.5,43.3 0.5,43.5 0.6,43.6 C4.5,58.8 18.2,70 34.5,70 C53.8,70 69.5,54.3 69.5,35 C69.5,15.7 53.8,0 34.5,0 Z" id="Shape" fill-rule="nonzero"></path>
        <path d="M42.1562689,37.0364426 L32.2803688,45.2663593 L32.2803688,45.2663593 C31.431815,45.9734875 30.1706856,45.8588394 29.4635574,45.0102856 C29.1640324,44.6508556 29,44.1977898 29,43.7299168 L29,27.2700832 L29,27.2700832 C29,26.1655137 29.8954305,25.2700832 31,25.2700832 C31.467873,25.2700832 31.9209388,25.4341157 32.2803688,25.7336407 L42.1562689,33.9635574 L42.1562689,33.9635574 C43.0048227,34.6706856 43.1194709,35.931815 42.4123427,36.7803688 C42.3349042,36.8732949 42.2491951,36.9590041 42.1562689,37.0364426 Z" id="Triangle-2"></path>
    </g>
</svg>